<svg enable-background="new 0 0 258.381 161.154" height="34" viewBox="0 0 33.999999 33.999998" width="34" xmlns="http://www.w3.org/2000/svg"><path d="m17 0a17 17 0 0 0 -17 17 17 17 0 0 0 17 17 17 17 0 0 0 17-17 17 17 0 0 0 -17-17zm0 2a15 15 0 0 1 15 15 15 15 0 0 1 -15 15 15 15 0 0 1 -15-15 15 15 0 0 1 15-15z" fill="#fff"/><path d="m15.517857 23.155439v-5.767857h-1.517857v-2.089286h1.517857s0-1.25 0-1.821429c0-.410714.08929-.821428.267857-1.196428.357143-.732143.964286-1.142857 1.732143-1.339286.535714-.142857 1.089286-.125 1.625-.08929.25 0 .839286.07143.839286.07143l-.05357 1.964286s-1.589285 0-1.607142.01786c-.375.07143-.553572.267857-.571429.678571-.01786.392857 0 1.714286 0 1.714286h2.249998l-.107143 2.107143h-2.142857v5.767857h-2.232143z" fill="#fff" stroke-width=".178571"/></svg>