<svg enable-background="new 0 0 258.381 161.154" height="34" viewBox="0 0 33.999999 33.999998" width="34" xmlns="http://www.w3.org/2000/svg"><g fill="#fff"><path d="m17 0a17 17 0 0 0 -17 17 17 17 0 0 0 17 17 17 17 0 0 0 17-17 17 17 0 0 0 -17-17zm0 2a15 15 0 0 1 15 15 15 15 0 0 1 -15 15 15 15 0 0 1 -15-15 15 15 0 0 1 15-15z"/><path d="m9.5133803 16.76119c.048658-2.449112 2.3031387-4.606277 4.7522507-4.525181 1.184008-.04866 2.286919.45414 3.17898 1.184008-.389263.437921-.778526.859622-1.200227 1.248885-1.086692-.746087-2.627524-.956938-3.714217-.09732-1.557051 1.070472-1.621928 3.600681-.129754 4.75225 1.443517 1.313763 4.184576.664991 4.590058-1.3462-.90828-.01622-1.81656 0-2.72484-.03244 0-.535236 0-1.086692 0-1.621929h4.557619c.09732 1.281324-.0811 2.627525-.859622 3.681778-1.184008 1.670587-3.568243 2.157165-5.417241 1.443517-1.865218-.713643-3.1951996-2.692396-3.0330067-4.687368z" stroke-width=".162193"/><path d="m21.775161 14.94463h1.3462c0 .45414 0 .90828.01622 1.36242.45414 0 .90828 0 1.36242.01622v1.346201c-.45414 0-.90828 0-1.36242.01622 0 .45414 0 .908281-.01622 1.362421-.45414 0-.90828 0-1.36242 0 0-.45414 0-.908281-.01622-1.362421-.45414 0-.90828-.01622-1.36242-.01622 0-.45414 0-.90828 0-1.346201.45414 0 .90828 0 1.36242-.01622.03244-.45414.03244-.90828.03244-1.36242z" stroke-width=".162193"/></g></svg>