<svg enable-background="new 0 0 258.381 161.154" height="34" viewBox="0 0 33.999999 33.999998" width="34" xmlns="http://www.w3.org/2000/svg"><path d="m17 0a17 17 0 0 0 -17 17 17 17 0 0 0 17 17 17 17 0 0 0 17-17 17 17 0 0 0 -17-17zm0 2a15 15 0 0 1 15 15 15 15 0 0 1 -15 15 15 15 0 0 1 -15-15 15 15 0 0 1 15-15z" fill="#fff"/><path d="m42.9 89c3.8 3.1 8.5 5 13.5 4.8 4.7-.2 9.6-2.5 12.9-5.8-1.7 0-3.9-.3-4.8-2-1-1.8.8-3.4 2.2-4.1-2.6-.1-5.1-.6-7-2.5-.5-.5-1-1.1-1.3-1.7s0-.8.5-1.2c1.1-.8 2.4-1 3.7-1.3-2.7-.8-5.4-2.1-6.8-4.7-.3-.5-1.1-2.2-.7-2.7.1-.2 1.1-.2 1.3-.2.9-.1 1.8-.2 2.7-.4-3.1-2.1-6.1-5-5.7-9 2.2.6 4.5 1.7 6.6 2.6 2.2.9 4.3 1.9 6.5 2.8 2 .9 4 1.9 5.9 3s3.5 2.7 5.1 4.2c1.3-3.4 2.7-6.8 4.5-10 1.7-3 3.8-5.9 6.8-7.7 0 .6-.4 1.1-.6 1.6 1.6-1.1 3.3-2 5.3-2.3.1.9-.9 1.5-1.5 2 .7-.2 5.3-1.8 4.8.1-.2.8-1.6 1.3-2.3 1.5-1.1.4-2.2.7-3.3 1 2.6.3 5 .8 7.2 2.2 2.3 1.4 4.1 3.3 5.4 5.5.7 1.1 1.3 2.3 1.7 3.6.2.6.4 1.3.6 2s .1.9.9 1c1.4.3 2.8.4 4.1.4.7 0 1.4-.2 2.1-.3.3-.1 1.3-.5 1.6-.4-.7 1.3-1.6 2.2-3 2.9-.7.3-1.4.6-2.2.7-.8.2-1.7.1-2.4.4 2.5.9 5.2 1.1 7.8.8-1.8 2.1-4.4 3.1-7.1 3.2-.3 0-.8-.1-1.1 0-.1 0-.2 0-.4 0-.1.2-.1.5-.2.7-.2.7-.4 1.4-.7 2.1-.5 1.4-1.1 2.7-1.8 4-2.7 5-6.8 9-11.8 11.8-5.3 3-11.1 4.5-17.1 5.1-5.8.6-11.7-.1-17.2-2.3-3-1.2-5.9-2.9-8.5-4.9-.6-.4-6.7-6-6.2-6.5.2.1 0 0 0 0z" fill="#fff" transform="matrix(.20796044 0 0 .20796044 .584549 .851321)"/></svg>